<svg width="28" height="22" viewBox="0 0 28 22" fill="none" xmlns="http://www.w3.org/2000/svg">
<rect width="1" height="1" transform="translate(3)" fill="#F2F2F2"/>
<rect width="1" height="1" transform="translate(3 1)" fill="#F2F2F2"/>
<rect width="1" height="1" transform="translate(2 1)" fill="#F2F2F2"/>
<rect width="1" height="1" transform="translate(2 2)" fill="#F2F2F2"/>
<rect width="1" height="1" transform="translate(1 2)" fill="#F2F2F2"/>
<rect width="1" height="1" transform="translate(0 2)" fill="#F2F2F2"/>
<rect width="1" height="1" transform="translate(0 3)" fill="#F2F2F2"/>
<rect width="1" height="1" transform="translate(1 3)" fill="#F2F2F2"/>
<rect width="1" height="1" transform="translate(2 3)" fill="#F2F2F2"/>
<rect width="1" height="1" transform="translate(2 4)" fill="#F2F2F2"/>
<rect width="1" height="1" transform="translate(2 5)" fill="#F2F2F2"/>
<rect width="1" height="1" transform="translate(2 6)" fill="#F2F2F2"/>
<rect width="1" height="1" transform="translate(2 7)" fill="#F2F2F2"/>
<rect width="1" height="1" transform="translate(2 8)" fill="#F2F2F2"/>
<rect width="1" height="1" transform="translate(2 9)" fill="#F2F2F2"/>
<rect width="1" height="1" transform="translate(2 10)" fill="#F2F2F2"/>
<rect width="1" height="1" transform="translate(2 11)" fill="#F2F2F2"/>
<rect width="1" height="1" transform="translate(2 12)" fill="#F2F2F2"/>
<rect width="1" height="1" transform="translate(2 13)" fill="#F2F2F2"/>
<rect width="1" height="1" transform="translate(2 14)" fill="#F2F2F2"/>
<rect width="1" height="1" transform="translate(2 15)" fill="#F2F2F2"/>
<rect width="1" height="1" transform="translate(2 16)" fill="#F2F2F2"/>
<rect width="1" height="1" transform="translate(2 17)" fill="#F2F2F2"/>
<rect width="1" height="1" transform="translate(2 18)" fill="#F2F2F2"/>
<rect width="1" height="1" transform="translate(2 19)" fill="#F2F2F2"/>
<rect width="1" height="1" transform="translate(5 21)" fill="#F2F2F2"/>
<rect width="1" height="1" transform="translate(8 21)" fill="#F2F2F2"/>
<rect width="1" height="1" transform="translate(11 21)" fill="#F2F2F2"/>
<rect width="1" height="1" transform="translate(14 21)" fill="#F2F2F2"/>
<rect width="1" height="1" transform="translate(17 21)" fill="#F2F2F2"/>
<rect width="1" height="1" transform="translate(20 21)" fill="#F2F2F2"/>
<rect width="1" height="1" transform="translate(24 21)" fill="#F2F2F2"/>
<rect width="1" height="1" transform="translate(23 21)" fill="#F2F2F2"/>
<rect width="1" height="1" transform="translate(1 4)" fill="#F2F2F2"/>
<rect width="1" height="1" transform="translate(1 5)" fill="#F2F2F2"/>
<rect width="1" height="1" transform="translate(1 6)" fill="#F2F2F2"/>
<rect width="1" height="1" transform="translate(1 7)" fill="#F2F2F2"/>
<rect width="1" height="1" transform="translate(1 8)" fill="#F2F2F2"/>
<rect width="1" height="1" transform="translate(1 9)" fill="#F2F2F2"/>
<rect width="1" height="1" transform="translate(1 10)" fill="#F2F2F2"/>
<rect width="1" height="1" transform="translate(1 11)" fill="#F2F2F2"/>
<rect width="1" height="1" transform="translate(1 12)" fill="#F2F2F2"/>
<rect width="1" height="1" transform="translate(1 13)" fill="#F2F2F2"/>
<rect width="1" height="1" transform="translate(1 14)" fill="#F2F2F2"/>
<rect width="1" height="1" transform="translate(1 15)" fill="#F2F2F2"/>
<rect width="1" height="1" transform="translate(1 16)" fill="#F2F2F2"/>
<rect width="1" height="1" transform="translate(1 17)" fill="#F2F2F2"/>
<rect width="1" height="1" transform="translate(1 18)" fill="#F2F2F2"/>
<rect width="1" height="1" transform="translate(1 19)" fill="#F2F2F2"/>
<rect width="1" height="1" transform="translate(1 20)" fill="#F2F2F2"/>
<rect width="1" height="1" transform="translate(2 20)" fill="#F2F2F2"/>
<rect width="1" height="1" transform="translate(4 21)" fill="#F2F2F2"/>
<rect width="1" height="1" transform="translate(7 21)" fill="#F2F2F2"/>
<rect width="1" height="1" transform="translate(10 21)" fill="#F2F2F2"/>
<rect width="1" height="1" transform="translate(13 21)" fill="#F2F2F2"/>
<rect width="1" height="1" transform="translate(16 21)" fill="#F2F2F2"/>
<rect width="1" height="1" transform="translate(19 21)" fill="#F2F2F2"/>
<rect width="1" height="1" transform="translate(22 21)" fill="#F2F2F2"/>
<rect width="1" height="1" transform="translate(0 4)" fill="#F2F2F2"/>
<rect width="1" height="1" transform="translate(0 5)" fill="#F2F2F2"/>
<rect width="1" height="1" transform="translate(0 6)" fill="#F2F2F2"/>
<rect width="1" height="1" transform="translate(0 7)" fill="#F2F2F2"/>
<rect width="1" height="1" transform="translate(0 8)" fill="#F2F2F2"/>
<rect width="1" height="1" transform="translate(0 9)" fill="#F2F2F2"/>
<rect width="1" height="1" transform="translate(0 10)" fill="#F2F2F2"/>
<rect width="1" height="1" transform="translate(0 11)" fill="#F2F2F2"/>
<rect width="1" height="1" transform="translate(0 12)" fill="#F2F2F2"/>
<rect width="1" height="1" transform="translate(0 13)" fill="#F2F2F2"/>
<rect width="1" height="1" transform="translate(0 14)" fill="#F2F2F2"/>
<rect width="1" height="1" transform="translate(0 15)" fill="#F2F2F2"/>
<rect width="1" height="1" transform="translate(0 16)" fill="#F2F2F2"/>
<rect width="1" height="1" transform="translate(0 17)" fill="#F2F2F2"/>
<rect width="1" height="1" transform="translate(0 18)" fill="#F2F2F2"/>
<rect width="1" height="1" transform="translate(0 19)" fill="#F2F2F2"/>
<rect width="1" height="1" transform="translate(3 21)" fill="#F2F2F2"/>
<rect width="1" height="1" transform="translate(6 21)" fill="#F2F2F2"/>
<rect width="1" height="1" transform="translate(9 21)" fill="#F2F2F2"/>
<rect width="1" height="1" transform="translate(12 21)" fill="#F2F2F2"/>
<rect width="1" height="1" transform="translate(15 21)" fill="#F2F2F2"/>
<rect width="1" height="1" transform="translate(18 21)" fill="#F2F2F2"/>
<rect width="1" height="1" transform="translate(21 21)" fill="#F2F2F2"/>
<rect width="1" height="1" transform="translate(3 2)" fill="#F2F2F2"/>
<rect width="1" height="1" transform="translate(3 3)" fill="#F2F2F2"/>
<rect width="1" height="1" transform="translate(3 5)" fill="#F2F2F2"/>
<rect width="1" height="1" transform="translate(3 4)" fill="#F2F2F2"/>
<rect width="1" height="1" transform="translate(3 6)" fill="#F2F2F2"/>
<rect width="1" height="1" transform="translate(3 7)" fill="#F2F2F2"/>
<rect width="1" height="1" transform="translate(3 8)" fill="#F2F2F2"/>
<rect width="1" height="1" transform="translate(3 9)" fill="#F2F2F2"/>
<rect width="1" height="1" transform="translate(3 10)" fill="#F2F2F2"/>
<rect width="1" height="1" transform="translate(3 11)" fill="#F2F2F2"/>
<rect width="1" height="1" transform="translate(3 12)" fill="#F2F2F2"/>
<rect width="1" height="1" transform="translate(3 13)" fill="#F2F2F2"/>
<rect width="1" height="1" transform="translate(3 14)" fill="#F2F2F2"/>
<rect width="1" height="1" transform="translate(3 15)" fill="#F2F2F2"/>
<rect width="1" height="1" transform="translate(3 16)" fill="#F2F2F2"/>
<rect width="1" height="1" transform="translate(3 17)" fill="#F2F2F2"/>
<rect width="1" height="1" transform="translate(3 18)" fill="#F2F2F2"/>
<rect width="1" height="1" transform="translate(3 19)" fill="#F2F2F2"/>
<rect width="1" height="1" transform="translate(3 20)" fill="#F2F2F2"/>
<rect width="1" height="1" transform="translate(4)" fill="#F2F2F2"/>
<rect width="1" height="1" transform="translate(4 1)" fill="#F2F2F2"/>
<rect width="1" height="1" transform="translate(4 2)" fill="#F2F2F2"/>
<rect width="1" height="1" transform="translate(4 3)" fill="#F2F2F2"/>
<rect width="1" height="1" transform="translate(4 5)" fill="#F2F2F2"/>
<rect width="1" height="1" transform="translate(4 4)" fill="#F2F2F2"/>
<rect width="1" height="1" transform="translate(4 6)" fill="#F2F2F2"/>
<rect width="1" height="1" transform="translate(4 7)" fill="#F2F2F2"/>
<rect width="1" height="1" transform="translate(4 8)" fill="#F2F2F2"/>
<rect width="1" height="1" transform="translate(4 9)" fill="#F2F2F2"/>
<rect width="1" height="1" transform="translate(4 10)" fill="#F2F2F2"/>
<rect width="1" height="1" transform="translate(4 11)" fill="#F2F2F2"/>
<rect width="1" height="1" transform="translate(4 12)" fill="#F2F2F2"/>
<rect width="1" height="1" transform="translate(4 13)" fill="#F2F2F2"/>
<rect width="1" height="1" transform="translate(4 14)" fill="#F2F2F2"/>
<rect width="1" height="1" transform="translate(4 15)" fill="#F2F2F2"/>
<rect width="1" height="1" transform="translate(4 16)" fill="#F2F2F2"/>
<rect width="1" height="1" transform="translate(4 17)" fill="#F2F2F2"/>
<rect width="1" height="1" transform="translate(4 18)" fill="#F2F2F2"/>
<rect width="1" height="1" transform="translate(4 19)" fill="#F2F2F2"/>
<rect width="1" height="1" transform="translate(4 20)" fill="#F2F2F2"/>
<rect width="1" height="1" transform="translate(5)" fill="#F2F2F2"/>
<rect width="1" height="1" transform="translate(5 1)" fill="#F2F2F2"/>
<rect width="1" height="1" transform="translate(5 2)" fill="#F2F2F2"/>
<rect width="1" height="1" transform="translate(5 3)" fill="#F2F2F2"/>
<rect width="1" height="1" transform="translate(5 5)" fill="#F2F2F2"/>
<rect width="1" height="1" transform="translate(5 4)" fill="#F2F2F2"/>
<rect width="1" height="1" transform="translate(5 6)" fill="#F2F2F2"/>
<rect width="1" height="1" transform="translate(5 7)" fill="#F2F2F2"/>
<rect width="1" height="1" transform="translate(5 8)" fill="#F2F2F2"/>
<rect width="1" height="1" transform="translate(5 9)" fill="#F2F2F2"/>
<rect width="1" height="1" transform="translate(5 10)" fill="#F2F2F2"/>
<rect width="1" height="1" transform="translate(5 11)" fill="#F2F2F2"/>
<rect width="1" height="1" transform="translate(5 12)" fill="#F2F2F2"/>
<rect width="1" height="1" transform="translate(5 13)" fill="#F2F2F2"/>
<rect width="1" height="1" transform="translate(5 14)" fill="#F2F2F2"/>
<rect width="1" height="1" transform="translate(5 15)" fill="#F2F2F2"/>
<rect width="1" height="1" transform="translate(5 16)" fill="#F2F2F2"/>
<rect width="1" height="1" transform="translate(5 17)" fill="#F2F2F2"/>
<rect width="1" height="1" transform="translate(5 18)" fill="#F2F2F2"/>
<rect width="1" height="1" transform="translate(5 19)" fill="#F2F2F2"/>
<rect width="1" height="1" transform="translate(5 20)" fill="#F2F2F2"/>
<rect width="1" height="1" transform="translate(6)" fill="#F2F2F2"/>
<rect width="1" height="1" transform="translate(6 1)" fill="#F2F2F2"/>
<rect width="1" height="1" transform="translate(6 2)" fill="#F2F2F2"/>
<rect width="1" height="1" transform="translate(6 3)" fill="#F2F2F2"/>
<rect width="1" height="1" transform="translate(6 5)" fill="#F2F2F2"/>
<rect width="1" height="1" transform="translate(6 4)" fill="#F2F2F2"/>
<rect width="1" height="1" transform="translate(6 6)" fill="#F2F2F2"/>
<rect width="1" height="1" transform="translate(6 7)" fill="#F2F2F2"/>
<rect width="1" height="1" transform="translate(6 8)" fill="#F2F2F2"/>
<rect width="1" height="1" transform="translate(6 9)" fill="#F2F2F2"/>
<rect width="1" height="1" transform="translate(6 10)" fill="#F2F2F2"/>
<rect width="1" height="1" transform="translate(6 11)" fill="#F2F2F2"/>
<rect width="1" height="1" transform="translate(6 12)" fill="#F2F2F2"/>
<rect width="1" height="1" transform="translate(6 13)" fill="#F2F2F2"/>
<rect width="1" height="1" transform="translate(6 14)" fill="#F2F2F2"/>
<rect width="1" height="1" transform="translate(6 15)" fill="#F2F2F2"/>
<rect width="1" height="1" transform="translate(6 16)" fill="#F2F2F2"/>
<rect width="1" height="1" transform="translate(6 17)" fill="#F2F2F2"/>
<rect width="1" height="1" transform="translate(6 18)" fill="#F2F2F2"/>
<rect width="1" height="1" transform="translate(6 19)" fill="#F2F2F2"/>
<rect width="1" height="1" transform="translate(6 20)" fill="#F2F2F2"/>
<rect width="1" height="1" transform="translate(7)" fill="#F2F2F2"/>
<rect width="1" height="1" transform="translate(7 1)" fill="#F2F2F2"/>
<rect width="1" height="1" transform="translate(7 2)" fill="#F2F2F2"/>
<rect width="1" height="1" transform="translate(7 3)" fill="#F2F2F2"/>
<rect width="1" height="1" transform="translate(7 5)" fill="#F2F2F2"/>
<rect width="1" height="1" transform="translate(7 4)" fill="#F2F2F2"/>
<rect width="1" height="1" transform="translate(7 6)" fill="#F2F2F2"/>
<rect width="1" height="1" transform="translate(7 7)" fill="#F2F2F2"/>
<rect width="1" height="1" transform="translate(7 8)" fill="#F2F2F2"/>
<rect width="1" height="1" transform="translate(7 9)" fill="#F2F2F2"/>
<rect width="1" height="1" transform="translate(7 10)" fill="#F2F2F2"/>
<rect width="1" height="1" transform="translate(7 11)" fill="#F2F2F2"/>
<rect width="1" height="1" transform="translate(7 12)" fill="#F2F2F2"/>
<rect width="1" height="1" transform="translate(7 13)" fill="#F2F2F2"/>
<rect width="1" height="1" transform="translate(7 14)" fill="#F2F2F2"/>
<rect width="1" height="1" transform="translate(7 15)" fill="#F2F2F2"/>
<rect width="1" height="1" transform="translate(7 16)" fill="#F2F2F2"/>
<rect width="1" height="1" transform="translate(7 17)" fill="#F2F2F2"/>
<rect width="1" height="1" transform="translate(7 18)" fill="#F2F2F2"/>
<rect width="1" height="1" transform="translate(7 19)" fill="#F2F2F2"/>
<rect width="1" height="1" transform="translate(7 20)" fill="#F2F2F2"/>
<rect width="1" height="1" transform="translate(8)" fill="#F2F2F2"/>
<rect width="1" height="1" transform="translate(8 1)" fill="#F2F2F2"/>
<rect width="1" height="1" transform="translate(8 2)" fill="#F2F2F2"/>
<rect width="1" height="1" transform="translate(8 3)" fill="#F2F2F2"/>
<rect width="1" height="1" transform="translate(8 5)" fill="#F2F2F2"/>
<rect width="1" height="1" transform="translate(8 4)" fill="#F2F2F2"/>
<rect width="1" height="1" transform="translate(8 6)" fill="#F2F2F2"/>
<rect width="1" height="1" transform="translate(8 7)" fill="#F2F2F2"/>
<rect width="1" height="1" transform="translate(8 8)" fill="#F2F2F2"/>
<rect width="1" height="1" transform="translate(8 9)" fill="#F2F2F2"/>
<rect width="1" height="1" transform="translate(8 10)" fill="#F2F2F2"/>
<rect width="1" height="1" transform="translate(8 11)" fill="#F2F2F2"/>
<rect width="1" height="1" transform="translate(8 12)" fill="#F2F2F2"/>
<rect width="1" height="1" transform="translate(8 13)" fill="#F2F2F2"/>
<rect width="1" height="1" transform="translate(8 14)" fill="#F2F2F2"/>
<rect width="1" height="1" transform="translate(8 15)" fill="#F2F2F2"/>
<rect width="1" height="1" transform="translate(8 16)" fill="#F2F2F2"/>
<rect width="1" height="1" transform="translate(8 17)" fill="#F2F2F2"/>
<rect width="1" height="1" transform="translate(8 18)" fill="#F2F2F2"/>
<rect width="1" height="1" transform="translate(8 19)" fill="#F2F2F2"/>
<rect width="1" height="1" transform="translate(8 20)" fill="#F2F2F2"/>
<rect width="1" height="1" transform="translate(9)" fill="#F2F2F2"/>
<rect width="1" height="1" transform="translate(9 1)" fill="#F2F2F2"/>
<rect width="1" height="1" transform="translate(9 2)" fill="#F2F2F2"/>
<rect width="1" height="1" transform="translate(9 3)" fill="#F2F2F2"/>
<rect width="1" height="1" transform="translate(9 5)" fill="#F2F2F2"/>
<rect width="1" height="1" transform="translate(9 4)" fill="#F2F2F2"/>
<rect width="1" height="1" transform="translate(9 6)" fill="#F2F2F2"/>
<rect width="1" height="1" transform="translate(9 7)" fill="#F2F2F2"/>
<rect width="1" height="1" transform="translate(9 8)" fill="#F2F2F2"/>
<rect width="1" height="1" transform="translate(9 9)" fill="#F2F2F2"/>
<rect width="1" height="1" transform="translate(9 10)" fill="#F2F2F2"/>
<rect width="1" height="1" transform="translate(9 11)" fill="#F2F2F2"/>
<rect width="1" height="1" transform="translate(9 12)" fill="#F2F2F2"/>
<rect width="1" height="1" transform="translate(9 13)" fill="#F2F2F2"/>
<rect width="1" height="1" transform="translate(9 14)" fill="#F2F2F2"/>
<rect width="1" height="1" transform="translate(9 15)" fill="#F2F2F2"/>
<rect width="1" height="1" transform="translate(9 16)" fill="#F2F2F2"/>
<rect width="1" height="1" transform="translate(9 17)" fill="#F2F2F2"/>
<rect width="1" height="1" transform="translate(9 18)" fill="#F2F2F2"/>
<rect width="1" height="1" transform="translate(9 19)" fill="#F2F2F2"/>
<rect width="1" height="1" transform="translate(9 20)" fill="#F2F2F2"/>
<rect width="1" height="1" transform="translate(10)" fill="#F2F2F2"/>
<rect width="1" height="1" transform="translate(10 1)" fill="#F2F2F2"/>
<rect width="1" height="1" transform="translate(10 2)" fill="#F2F2F2"/>
<rect width="1" height="1" transform="translate(10 3)" fill="#F2F2F2"/>
<rect width="1" height="1" transform="translate(10 5)" fill="#F2F2F2"/>
<rect width="1" height="1" transform="translate(10 4)" fill="#F2F2F2"/>
<rect width="1" height="1" transform="translate(10 6)" fill="#F2F2F2"/>
<rect width="1" height="1" transform="translate(10 7)" fill="#F2F2F2"/>
<rect width="1" height="1" transform="translate(10 8)" fill="#F2F2F2"/>
<rect width="1" height="1" transform="translate(10 9)" fill="#F2F2F2"/>
<rect width="1" height="1" transform="translate(10 10)" fill="#F2F2F2"/>
<rect width="1" height="1" transform="translate(10 11)" fill="#F2F2F2"/>
<rect width="1" height="1" transform="translate(10 12)" fill="#F2F2F2"/>
<rect width="1" height="1" transform="translate(10 13)" fill="#F2F2F2"/>
<rect width="1" height="1" transform="translate(10 14)" fill="#F2F2F2"/>
<rect width="1" height="1" transform="translate(10 15)" fill="#F2F2F2"/>
<rect width="1" height="1" transform="translate(10 16)" fill="#F2F2F2"/>
<rect width="1" height="1" transform="translate(10 17)" fill="#F2F2F2"/>
<rect width="1" height="1" transform="translate(10 18)" fill="#F2F2F2"/>
<rect width="1" height="1" transform="translate(10 19)" fill="#F2F2F2"/>
<rect width="1" height="1" transform="translate(10 20)" fill="#F2F2F2"/>
<rect width="1" height="1" transform="translate(11)" fill="#F2F2F2"/>
<rect width="1" height="1" transform="translate(11 1)" fill="#F2F2F2"/>
<rect width="1" height="1" transform="translate(11 2)" fill="#F2F2F2"/>
<rect width="1" height="1" transform="translate(11 3)" fill="#F2F2F2"/>
<rect width="1" height="1" transform="translate(11 5)" fill="#F2F2F2"/>
<rect width="1" height="1" transform="translate(11 4)" fill="#F2F2F2"/>
<rect width="1" height="1" transform="translate(11 6)" fill="#F2F2F2"/>
<rect width="1" height="1" transform="translate(11 7)" fill="#F2F2F2"/>
<rect width="1" height="1" transform="translate(11 8)" fill="#F2F2F2"/>
<rect width="1" height="1" transform="translate(11 9)" fill="#F2F2F2"/>
<rect width="1" height="1" transform="translate(11 10)" fill="#F2F2F2"/>
<rect width="1" height="1" transform="translate(11 11)" fill="#F2F2F2"/>
<rect width="1" height="1" transform="translate(11 12)" fill="#F2F2F2"/>
<rect width="1" height="1" transform="translate(11 13)" fill="#F2F2F2"/>
<rect width="1" height="1" transform="translate(11 14)" fill="#F2F2F2"/>
<rect width="1" height="1" transform="translate(11 15)" fill="#F2F2F2"/>
<rect width="1" height="1" transform="translate(11 16)" fill="#F2F2F2"/>
<rect width="1" height="1" transform="translate(11 17)" fill="#F2F2F2"/>
<rect width="1" height="1" transform="translate(11 18)" fill="#F2F2F2"/>
<rect width="1" height="1" transform="translate(11 19)" fill="#F2F2F2"/>
<rect width="1" height="1" transform="translate(11 20)" fill="#F2F2F2"/>
<rect width="1" height="1" transform="translate(12)" fill="#F2F2F2"/>
<rect width="1" height="1" transform="translate(12 1)" fill="#F2F2F2"/>
<rect width="1" height="1" transform="translate(12 2)" fill="#F2F2F2"/>
<rect width="1" height="1" transform="translate(12 3)" fill="#F2F2F2"/>
<rect width="1" height="1" transform="translate(12 5)" fill="#F2F2F2"/>
<rect width="1" height="1" transform="translate(12 4)" fill="#F2F2F2"/>
<rect width="1" height="1" transform="translate(12 6)" fill="#F2F2F2"/>
<rect width="1" height="1" transform="translate(12 7)" fill="#F2F2F2"/>
<rect width="1" height="1" transform="translate(12 8)" fill="#F2F2F2"/>
<rect width="1" height="1" transform="translate(12 9)" fill="#F2F2F2"/>
<rect width="1" height="1" transform="translate(12 10)" fill="#F2F2F2"/>
<rect width="1" height="1" transform="translate(12 11)" fill="#F2F2F2"/>
<rect width="1" height="1" transform="translate(12 12)" fill="#F2F2F2"/>
<rect width="1" height="1" transform="translate(12 13)" fill="#F2F2F2"/>
<rect width="1" height="1" transform="translate(12 14)" fill="#F2F2F2"/>
<rect width="1" height="1" transform="translate(12 15)" fill="#F2F2F2"/>
<rect width="1" height="1" transform="translate(12 16)" fill="#F2F2F2"/>
<rect width="1" height="1" transform="translate(12 17)" fill="#F2F2F2"/>
<rect width="1" height="1" transform="translate(12 18)" fill="#F2F2F2"/>
<rect width="1" height="1" transform="translate(12 19)" fill="#F2F2F2"/>
<rect width="1" height="1" transform="translate(12 20)" fill="#F2F2F2"/>
<rect width="1" height="1" transform="translate(13)" fill="#F2F2F2"/>
<rect width="1" height="1" transform="translate(13 1)" fill="#F2F2F2"/>
<rect width="1" height="1" transform="translate(13 2)" fill="#F2F2F2"/>
<rect width="1" height="1" transform="translate(13 3)" fill="#F2F2F2"/>
<rect width="1" height="1" transform="translate(13 5)" fill="#F2F2F2"/>
<rect width="1" height="1" transform="translate(13 4)" fill="#F2F2F2"/>
<rect width="1" height="1" transform="translate(13 6)" fill="#F2F2F2"/>
<rect width="1" height="1" transform="translate(13 7)" fill="#F2F2F2"/>
<rect width="1" height="1" transform="translate(13 8)" fill="#F2F2F2"/>
<rect width="1" height="1" transform="translate(13 9)" fill="#F2F2F2"/>
<rect width="1" height="1" transform="translate(13 10)" fill="#F2F2F2"/>
<rect width="1" height="1" transform="translate(13 11)" fill="#F2F2F2"/>
<rect width="1" height="1" transform="translate(13 12)" fill="#F2F2F2"/>
<rect width="1" height="1" transform="translate(13 13)" fill="#F2F2F2"/>
<rect width="1" height="1" transform="translate(13 14)" fill="#F2F2F2"/>
<rect width="1" height="1" transform="translate(13 15)" fill="#F2F2F2"/>
<rect width="1" height="1" transform="translate(13 16)" fill="#F2F2F2"/>
<rect width="1" height="1" transform="translate(13 17)" fill="#F2F2F2"/>
<rect width="1" height="1" transform="translate(13 18)" fill="#F2F2F2"/>
<rect width="1" height="1" transform="translate(13 19)" fill="#F2F2F2"/>
<rect width="1" height="1" transform="translate(13 20)" fill="#F2F2F2"/>
<rect width="1" height="1" transform="translate(14)" fill="#F2F2F2"/>
<rect width="1" height="1" transform="translate(14 1)" fill="#F2F2F2"/>
<rect width="1" height="1" transform="translate(14 2)" fill="#F2F2F2"/>
<rect width="1" height="1" transform="translate(14 3)" fill="#F2F2F2"/>
<rect width="1" height="1" transform="translate(14 5)" fill="#F2F2F2"/>
<rect width="1" height="1" transform="translate(14 4)" fill="#F2F2F2"/>
<rect width="1" height="1" transform="translate(14 6)" fill="#F2F2F2"/>
<rect width="1" height="1" transform="translate(14 7)" fill="#F2F2F2"/>
<rect width="1" height="1" transform="translate(14 8)" fill="#F2F2F2"/>
<rect width="1" height="1" transform="translate(14 9)" fill="#F2F2F2"/>
<rect width="1" height="1" transform="translate(14 10)" fill="#F2F2F2"/>
<rect width="1" height="1" transform="translate(14 11)" fill="#F2F2F2"/>
<rect width="1" height="1" transform="translate(14 12)" fill="#F2F2F2"/>
<rect width="1" height="1" transform="translate(14 13)" fill="#F2F2F2"/>
<rect width="1" height="1" transform="translate(14 14)" fill="#F2F2F2"/>
<rect width="1" height="1" transform="translate(14 15)" fill="#F2F2F2"/>
<rect width="1" height="1" transform="translate(14 16)" fill="#F2F2F2"/>
<rect width="1" height="1" transform="translate(14 17)" fill="#F2F2F2"/>
<rect width="1" height="1" transform="translate(14 18)" fill="#F2F2F2"/>
<rect width="1" height="1" transform="translate(14 19)" fill="#F2F2F2"/>
<rect width="1" height="1" transform="translate(14 20)" fill="#F2F2F2"/>
<rect width="1" height="1" transform="translate(15)" fill="#F2F2F2"/>
<rect width="1" height="1" transform="translate(15 1)" fill="#F2F2F2"/>
<rect width="1" height="1" transform="translate(15 2)" fill="#F2F2F2"/>
<rect width="1" height="1" transform="translate(15 3)" fill="#F2F2F2"/>
<rect width="1" height="1" transform="translate(15 5)" fill="#F2F2F2"/>
<rect width="1" height="1" transform="translate(15 4)" fill="#F2F2F2"/>
<rect width="1" height="1" transform="translate(15 6)" fill="#F2F2F2"/>
<rect width="1" height="1" transform="translate(15 7)" fill="#F2F2F2"/>
<rect width="1" height="1" transform="translate(15 8)" fill="#F2F2F2"/>
<rect width="1" height="1" transform="translate(15 9)" fill="#F2F2F2"/>
<rect width="1" height="1" transform="translate(15 10)" fill="#F2F2F2"/>
<rect width="1" height="1" transform="translate(15 11)" fill="#F2F2F2"/>
<rect width="1" height="1" transform="translate(15 12)" fill="#F2F2F2"/>
<rect width="1" height="1" transform="translate(15 13)" fill="#F2F2F2"/>
<rect width="1" height="1" transform="translate(15 14)" fill="#F2F2F2"/>
<rect width="1" height="1" transform="translate(15 15)" fill="#F2F2F2"/>
<rect width="1" height="1" transform="translate(15 16)" fill="#F2F2F2"/>
<rect width="1" height="1" transform="translate(15 17)" fill="#F2F2F2"/>
<rect width="1" height="1" transform="translate(15 18)" fill="#F2F2F2"/>
<rect width="1" height="1" transform="translate(15 19)" fill="#F2F2F2"/>
<rect width="1" height="1" transform="translate(15 20)" fill="#F2F2F2"/>
<rect width="1" height="1" transform="translate(16)" fill="#F2F2F2"/>
<rect width="1" height="1" transform="translate(16 1)" fill="#F2F2F2"/>
<rect width="1" height="1" transform="translate(16 2)" fill="#F2F2F2"/>
<rect width="1" height="1" transform="translate(16 3)" fill="#F2F2F2"/>
<rect width="1" height="1" transform="translate(16 5)" fill="#F2F2F2"/>
<rect width="1" height="1" transform="translate(16 4)" fill="#F2F2F2"/>
<rect width="1" height="1" transform="translate(16 6)" fill="#F2F2F2"/>
<rect width="1" height="1" transform="translate(16 7)" fill="#F2F2F2"/>
<rect width="1" height="1" transform="translate(16 8)" fill="#F2F2F2"/>
<rect width="1" height="1" transform="translate(16 9)" fill="#F2F2F2"/>
<rect width="1" height="1" transform="translate(16 10)" fill="#F2F2F2"/>
<rect width="1" height="1" transform="translate(16 11)" fill="#F2F2F2"/>
<rect width="1" height="1" transform="translate(16 12)" fill="#F2F2F2"/>
<rect width="1" height="1" transform="translate(16 13)" fill="#F2F2F2"/>
<rect width="1" height="1" transform="translate(16 14)" fill="#F2F2F2"/>
<rect width="1" height="1" transform="translate(16 15)" fill="#F2F2F2"/>
<rect width="1" height="1" transform="translate(16 16)" fill="#F2F2F2"/>
<rect width="1" height="1" transform="translate(16 17)" fill="#F2F2F2"/>
<rect width="1" height="1" transform="translate(16 18)" fill="#F2F2F2"/>
<rect width="1" height="1" transform="translate(16 19)" fill="#F2F2F2"/>
<rect width="1" height="1" transform="translate(16 20)" fill="#F2F2F2"/>
<rect width="1" height="1" transform="translate(17)" fill="#F2F2F2"/>
<rect width="1" height="1" transform="translate(17 1)" fill="#F2F2F2"/>
<rect width="1" height="1" transform="translate(17 2)" fill="#F2F2F2"/>
<rect width="1" height="1" transform="translate(17 3)" fill="#F2F2F2"/>
<rect width="1" height="1" transform="translate(17 5)" fill="#F2F2F2"/>
<rect width="1" height="1" transform="translate(17 4)" fill="#F2F2F2"/>
<rect width="1" height="1" transform="translate(17 6)" fill="#F2F2F2"/>
<rect width="1" height="1" transform="translate(17 7)" fill="#F2F2F2"/>
<rect width="1" height="1" transform="translate(17 8)" fill="#F2F2F2"/>
<rect width="1" height="1" transform="translate(17 9)" fill="#F2F2F2"/>
<rect width="1" height="1" transform="translate(17 10)" fill="#F2F2F2"/>
<rect width="1" height="1" transform="translate(17 11)" fill="#F2F2F2"/>
<rect width="1" height="1" transform="translate(17 12)" fill="#F2F2F2"/>
<rect width="1" height="1" transform="translate(17 13)" fill="#F2F2F2"/>
<rect width="1" height="1" transform="translate(17 14)" fill="#F2F2F2"/>
<rect width="1" height="1" transform="translate(17 15)" fill="#F2F2F2"/>
<rect width="1" height="1" transform="translate(17 16)" fill="#F2F2F2"/>
<rect width="1" height="1" transform="translate(17 17)" fill="#F2F2F2"/>
<rect width="1" height="1" transform="translate(17 18)" fill="#F2F2F2"/>
<rect width="1" height="1" transform="translate(17 19)" fill="#F2F2F2"/>
<rect width="1" height="1" transform="translate(17 20)" fill="#F2F2F2"/>
<rect width="1" height="1" transform="translate(18)" fill="#F2F2F2"/>
<rect width="1" height="1" transform="translate(18 1)" fill="#F2F2F2"/>
<rect width="1" height="1" transform="translate(18 2)" fill="#F2F2F2"/>
<rect width="1" height="1" transform="translate(18 3)" fill="#F2F2F2"/>
<rect width="1" height="1" transform="translate(18 5)" fill="#F2F2F2"/>
<rect width="1" height="1" transform="translate(18 4)" fill="#F2F2F2"/>
<rect width="1" height="1" transform="translate(18 6)" fill="#F2F2F2"/>
<rect width="1" height="1" transform="translate(18 7)" fill="#F2F2F2"/>
<rect width="1" height="1" transform="translate(18 8)" fill="#F2F2F2"/>
<rect width="1" height="1" transform="translate(18 9)" fill="#F2F2F2"/>
<rect width="1" height="1" transform="translate(18 10)" fill="#F2F2F2"/>
<rect width="1" height="1" transform="translate(18 11)" fill="#F2F2F2"/>
<rect width="1" height="1" transform="translate(18 12)" fill="#F2F2F2"/>
<rect width="1" height="1" transform="translate(18 13)" fill="#F2F2F2"/>
<rect width="1" height="1" transform="translate(18 14)" fill="#F2F2F2"/>
<rect width="1" height="1" transform="translate(18 15)" fill="#F2F2F2"/>
<rect width="1" height="1" transform="translate(18 16)" fill="#F2F2F2"/>
<rect width="1" height="1" transform="translate(18 17)" fill="#F2F2F2"/>
<rect width="1" height="1" transform="translate(18 18)" fill="#F2F2F2"/>
<rect width="1" height="1" transform="translate(18 19)" fill="#F2F2F2"/>
<rect width="1" height="1" transform="translate(18 20)" fill="#F2F2F2"/>
<rect width="1" height="1" transform="translate(19)" fill="#F2F2F2"/>
<rect width="1" height="1" transform="translate(19 1)" fill="#F2F2F2"/>
<rect width="1" height="1" transform="translate(19 2)" fill="#F2F2F2"/>
<rect width="1" height="1" transform="translate(19 3)" fill="#F2F2F2"/>
<rect width="1" height="1" transform="translate(19 5)" fill="#F2F2F2"/>
<rect width="1" height="1" transform="translate(19 4)" fill="#F2F2F2"/>
<rect width="1" height="1" transform="translate(19 6)" fill="#F2F2F2"/>
<rect width="1" height="1" transform="translate(19 7)" fill="#F2F2F2"/>
<rect width="1" height="1" transform="translate(19 8)" fill="#F2F2F2"/>
<rect width="1" height="1" transform="translate(19 9)" fill="#F2F2F2"/>
<rect width="1" height="1" transform="translate(19 10)" fill="#F2F2F2"/>
<rect width="1" height="1" transform="translate(19 11)" fill="#F2F2F2"/>
<rect width="1" height="1" transform="translate(19 12)" fill="#F2F2F2"/>
<rect width="1" height="1" transform="translate(19 13)" fill="#F2F2F2"/>
<rect width="1" height="1" transform="translate(19 14)" fill="#F2F2F2"/>
<rect width="1" height="1" transform="translate(19 15)" fill="#F2F2F2"/>
<rect width="1" height="1" transform="translate(19 16)" fill="#F2F2F2"/>
<rect width="1" height="1" transform="translate(19 17)" fill="#F2F2F2"/>
<rect width="1" height="1" transform="translate(19 18)" fill="#F2F2F2"/>
<rect width="1" height="1" transform="translate(19 19)" fill="#F2F2F2"/>
<rect width="1" height="1" transform="translate(19 20)" fill="#F2F2F2"/>
<rect width="1" height="1" transform="translate(20)" fill="#F2F2F2"/>
<rect width="1" height="1" transform="translate(20 1)" fill="#F2F2F2"/>
<rect width="1" height="1" transform="translate(20 2)" fill="#F2F2F2"/>
<rect width="1" height="1" transform="translate(20 3)" fill="#F2F2F2"/>
<rect width="1" height="1" transform="translate(20 5)" fill="#F2F2F2"/>
<rect width="1" height="1" transform="translate(20 4)" fill="#F2F2F2"/>
<rect width="1" height="1" transform="translate(20 6)" fill="#F2F2F2"/>
<rect width="1" height="1" transform="translate(20 7)" fill="#F2F2F2"/>
<rect width="1" height="1" transform="translate(20 8)" fill="#F2F2F2"/>
<rect width="1" height="1" transform="translate(20 9)" fill="#F2F2F2"/>
<rect width="1" height="1" transform="translate(20 10)" fill="#F2F2F2"/>
<rect width="1" height="1" transform="translate(20 11)" fill="#F2F2F2"/>
<rect width="1" height="1" transform="translate(20 12)" fill="#F2F2F2"/>
<rect width="1" height="1" transform="translate(20 13)" fill="#F2F2F2"/>
<rect width="1" height="1" transform="translate(20 14)" fill="#F2F2F2"/>
<rect width="1" height="1" transform="translate(20 15)" fill="#F2F2F2"/>
<rect width="1" height="1" transform="translate(20 16)" fill="#F2F2F2"/>
<rect width="1" height="1" transform="translate(20 17)" fill="#F2F2F2"/>
<rect width="1" height="1" transform="translate(20 18)" fill="#F2F2F2"/>
<rect width="1" height="1" transform="translate(20 19)" fill="#F2F2F2"/>
<rect width="1" height="1" transform="translate(20 20)" fill="#F2F2F2"/>
<rect width="1" height="1" transform="translate(21)" fill="#F2F2F2"/>
<rect width="1" height="1" transform="translate(21 1)" fill="#F2F2F2"/>
<rect width="1" height="1" transform="translate(21 2)" fill="#F2F2F2"/>
<rect width="1" height="1" transform="translate(21 3)" fill="#F2F2F2"/>
<rect width="1" height="1" transform="translate(21 5)" fill="#F2F2F2"/>
<rect width="1" height="1" transform="translate(21 4)" fill="#F2F2F2"/>
<rect width="1" height="1" transform="translate(21 6)" fill="#F2F2F2"/>
<rect width="1" height="1" transform="translate(21 7)" fill="#F2F2F2"/>
<rect width="1" height="1" transform="translate(21 8)" fill="#F2F2F2"/>
<rect width="1" height="1" transform="translate(21 9)" fill="#F2F2F2"/>
<rect width="1" height="1" transform="translate(21 10)" fill="#F2F2F2"/>
<rect width="1" height="1" transform="translate(21 11)" fill="#F2F2F2"/>
<rect width="1" height="1" transform="translate(21 12)" fill="#F2F2F2"/>
<rect width="1" height="1" transform="translate(21 13)" fill="#F2F2F2"/>
<rect width="1" height="1" transform="translate(21 14)" fill="#F2F2F2"/>
<rect width="1" height="1" transform="translate(21 15)" fill="#F2F2F2"/>
<rect width="1" height="1" transform="translate(21 16)" fill="#F2F2F2"/>
<rect width="1" height="1" transform="translate(21 17)" fill="#F2F2F2"/>
<rect width="1" height="1" transform="translate(21 18)" fill="#F2F2F2"/>
<rect width="1" height="1" transform="translate(21 19)" fill="#F2F2F2"/>
<rect width="1" height="1" transform="translate(21 20)" fill="#F2F2F2"/>
<rect width="1" height="1" transform="translate(22)" fill="#F2F2F2"/>
<rect width="1" height="1" transform="translate(22 1)" fill="#F2F2F2"/>
<rect width="1" height="1" transform="translate(22 2)" fill="#F2F2F2"/>
<rect width="1" height="1" transform="translate(22 3)" fill="#F2F2F2"/>
<rect width="1" height="1" transform="translate(22 5)" fill="#F2F2F2"/>
<rect width="1" height="1" transform="translate(22 4)" fill="#F2F2F2"/>
<rect width="1" height="1" transform="translate(22 6)" fill="#F2F2F2"/>
<rect width="1" height="1" transform="translate(22 7)" fill="#F2F2F2"/>
<rect width="1" height="1" transform="translate(22 8)" fill="#F2F2F2"/>
<rect width="1" height="1" transform="translate(22 9)" fill="#F2F2F2"/>
<rect width="1" height="1" transform="translate(22 10)" fill="#F2F2F2"/>
<rect width="1" height="1" transform="translate(22 11)" fill="#F2F2F2"/>
<rect width="1" height="1" transform="translate(22 12)" fill="#F2F2F2"/>
<rect width="1" height="1" transform="translate(22 13)" fill="#F2F2F2"/>
<rect width="1" height="1" transform="translate(22 14)" fill="#F2F2F2"/>
<rect width="1" height="1" transform="translate(22 15)" fill="#F2F2F2"/>
<rect width="1" height="1" transform="translate(22 16)" fill="#F2F2F2"/>
<rect width="1" height="1" transform="translate(22 17)" fill="#F2F2F2"/>
<rect width="1" height="1" transform="translate(22 18)" fill="#F2F2F2"/>
<rect width="1" height="1" transform="translate(22 19)" fill="#F2F2F2"/>
<rect width="1" height="1" transform="translate(22 20)" fill="#F2F2F2"/>
<rect width="1" height="1" transform="translate(24)" fill="#F2F2F2"/>
<rect width="1" height="1" transform="translate(23)" fill="#F2F2F2"/>
<rect width="1" height="1" transform="translate(25 2)" fill="#F2F2F2"/>
<rect width="1" height="1" transform="translate(25 1)" fill="#F2F2F2"/>
<rect width="1" height="1" transform="translate(26 1)" fill="#F2F2F2"/>
<rect width="1" height="1" transform="translate(26 2)" fill="#F2F2F2"/>
<rect width="1" height="1" transform="translate(27 2)" fill="#F2F2F2"/>
<rect width="1" height="1" transform="translate(27 3)" fill="#F2F2F2"/>
<rect width="1" height="1" transform="translate(27 4)" fill="#F2F2F2"/>
<rect width="1" height="1" transform="translate(27 5)" fill="#F2F2F2"/>
<rect width="1" height="1" transform="translate(27 6)" fill="#F2F2F2"/>
<rect width="1" height="1" transform="translate(27 7)" fill="#F2F2F2"/>
<rect width="1" height="1" transform="translate(27 8)" fill="#F2F2F2"/>
<rect width="1" height="1" transform="translate(27 9)" fill="#F2F2F2"/>
<rect width="1" height="1" transform="translate(27 10)" fill="#F2F2F2"/>
<rect width="1" height="1" transform="translate(27 11)" fill="#F2F2F2"/>
<rect width="1" height="1" transform="translate(27 12)" fill="#F2F2F2"/>
<rect width="1" height="1" transform="translate(27 13)" fill="#F2F2F2"/>
<rect width="1" height="1" transform="translate(27 14)" fill="#F2F2F2"/>
<rect width="1" height="1" transform="translate(27 15)" fill="#F2F2F2"/>
<rect width="1" height="1" transform="translate(27 16)" fill="#F2F2F2"/>
<rect width="1" height="1" transform="translate(27 17)" fill="#F2F2F2"/>
<rect width="1" height="1" transform="translate(27 18)" fill="#F2F2F2"/>
<rect width="1" height="1" transform="translate(25 19)" fill="#F2F2F2"/>
<rect width="1" height="1" transform="translate(25 20)" fill="#F2F2F2"/>
<rect width="1" height="1" transform="translate(26 20)" fill="#F2F2F2"/>
<rect width="1" height="1" transform="translate(26 3)" fill="#F2F2F2"/>
<rect width="1" height="1" transform="translate(26 4)" fill="#F2F2F2"/>
<rect width="1" height="1" transform="translate(26 5)" fill="#F2F2F2"/>
<rect width="1" height="1" transform="translate(26 6)" fill="#F2F2F2"/>
<rect width="1" height="1" transform="translate(26 7)" fill="#F2F2F2"/>
<rect width="1" height="1" transform="translate(26 8)" fill="#F2F2F2"/>
<rect width="1" height="1" transform="translate(26 9)" fill="#F2F2F2"/>
<rect width="1" height="1" transform="translate(26 10)" fill="#F2F2F2"/>
<rect width="1" height="1" transform="translate(26 11)" fill="#F2F2F2"/>
<rect width="1" height="1" transform="translate(26 12)" fill="#F2F2F2"/>
<rect width="1" height="1" transform="translate(26 13)" fill="#F2F2F2"/>
<rect width="1" height="1" transform="translate(26 14)" fill="#F2F2F2"/>
<rect width="1" height="1" transform="translate(26 15)" fill="#F2F2F2"/>
<rect width="1" height="1" transform="translate(26 16)" fill="#F2F2F2"/>
<rect width="1" height="1" transform="translate(26 17)" fill="#F2F2F2"/>
<rect width="1" height="1" transform="translate(26 18)" fill="#F2F2F2"/>
<rect width="1" height="1" transform="translate(26 19)" fill="#F2F2F2"/>
<rect width="1" height="1" transform="translate(25 3)" fill="#F2F2F2"/>
<rect width="1" height="1" transform="translate(25 4)" fill="#F2F2F2"/>
<rect width="1" height="1" transform="translate(25 5)" fill="#F2F2F2"/>
<rect width="1" height="1" transform="translate(25 6)" fill="#F2F2F2"/>
<rect width="1" height="1" transform="translate(25 7)" fill="#F2F2F2"/>
<rect width="1" height="1" transform="translate(25 8)" fill="#F2F2F2"/>
<rect width="1" height="1" transform="translate(25 9)" fill="#F2F2F2"/>
<rect width="1" height="1" transform="translate(25 10)" fill="#F2F2F2"/>
<rect width="1" height="1" transform="translate(25 11)" fill="#F2F2F2"/>
<rect width="1" height="1" transform="translate(25 12)" fill="#F2F2F2"/>
<rect width="1" height="1" transform="translate(25 13)" fill="#F2F2F2"/>
<rect width="1" height="1" transform="translate(25 14)" fill="#F2F2F2"/>
<rect width="1" height="1" transform="translate(25 15)" fill="#F2F2F2"/>
<rect width="1" height="1" transform="translate(25 16)" fill="#F2F2F2"/>
<rect width="1" height="1" transform="translate(25 17)" fill="#F2F2F2"/>
<rect width="1" height="1" transform="translate(25 18)" fill="#F2F2F2"/>
<rect width="1" height="1" transform="translate(27 19)" fill="#F2F2F2"/>
<rect width="1" height="1" transform="translate(24 1)" fill="#F2F2F2"/>
<rect width="1" height="1" transform="translate(23 1)" fill="#F2F2F2"/>
<rect width="1" height="1" transform="translate(24 2)" fill="#F2F2F2"/>
<rect width="1" height="1" transform="translate(23 2)" fill="#F2F2F2"/>
<rect width="1" height="1" transform="translate(24 3)" fill="#F2F2F2"/>
<rect width="1" height="1" transform="translate(23 3)" fill="#F2F2F2"/>
<rect width="1" height="1" transform="translate(24 5)" fill="#F2F2F2"/>
<rect width="1" height="1" transform="translate(23 5)" fill="#F2F2F2"/>
<rect width="1" height="1" transform="translate(24 4)" fill="#F2F2F2"/>
<rect width="1" height="1" transform="translate(23 4)" fill="#F2F2F2"/>
<rect width="1" height="1" transform="translate(24 6)" fill="#F2F2F2"/>
<rect width="1" height="1" transform="translate(23 6)" fill="#F2F2F2"/>
<rect width="1" height="1" transform="translate(24 7)" fill="#F2F2F2"/>
<rect width="1" height="1" transform="translate(23 7)" fill="#F2F2F2"/>
<rect width="1" height="1" transform="translate(24 8)" fill="#F2F2F2"/>
<rect width="1" height="1" transform="translate(23 8)" fill="#F2F2F2"/>
<rect width="1" height="1" transform="translate(24 9)" fill="#F2F2F2"/>
<rect width="1" height="1" transform="translate(23 9)" fill="#F2F2F2"/>
<rect width="1" height="1" transform="translate(24 10)" fill="#F2F2F2"/>
<rect width="1" height="1" transform="translate(23 10)" fill="#F2F2F2"/>
<rect width="1" height="1" transform="translate(24 11)" fill="#F2F2F2"/>
<rect width="1" height="1" transform="translate(23 11)" fill="#F2F2F2"/>
<rect width="1" height="1" transform="translate(24 12)" fill="#F2F2F2"/>
<rect width="1" height="1" transform="translate(23 12)" fill="#F2F2F2"/>
<rect width="1" height="1" transform="translate(24 13)" fill="#F2F2F2"/>
<rect width="1" height="1" transform="translate(23 13)" fill="#F2F2F2"/>
<rect width="1" height="1" transform="translate(24 14)" fill="#F2F2F2"/>
<rect width="1" height="1" transform="translate(23 14)" fill="#F2F2F2"/>
<rect width="1" height="1" transform="translate(24 15)" fill="#F2F2F2"/>
<rect width="1" height="1" transform="translate(23 15)" fill="#F2F2F2"/>
<rect width="1" height="1" transform="translate(24 16)" fill="#F2F2F2"/>
<rect width="1" height="1" transform="translate(23 16)" fill="#F2F2F2"/>
<rect width="1" height="1" transform="translate(24 17)" fill="#F2F2F2"/>
<rect width="1" height="1" transform="translate(23 17)" fill="#F2F2F2"/>
<rect width="1" height="1" transform="translate(24 18)" fill="#F2F2F2"/>
<rect width="1" height="1" transform="translate(23 18)" fill="#F2F2F2"/>
<rect width="1" height="1" transform="translate(24 19)" fill="#F2F2F2"/>
<rect width="1" height="1" transform="translate(23 19)" fill="#F2F2F2"/>
<rect width="1" height="1" transform="translate(24 20)" fill="#F2F2F2"/>
<rect width="1" height="1" transform="translate(23 20)" fill="#F2F2F2"/>
<rect width="1" height="1" transform="translate(10 6)" fill="#212121"/>
<rect width="1" height="1" transform="translate(11 6)" fill="#212121"/>
<rect width="1" height="1" transform="translate(11 7)" fill="#212121"/>
<rect width="1" height="1" transform="translate(10 7)" fill="#212121"/>
<rect width="1" height="1" transform="translate(10 8)" fill="#212121"/>
<rect width="1" height="1" transform="translate(11 8)" fill="#212121"/>
<rect width="1" height="1" transform="translate(12 8)" fill="#212121"/>
<rect width="1" height="1" transform="translate(12 7)" fill="#212121"/>
<rect width="1" height="1" transform="translate(12 6)" fill="#212121"/>
<rect width="1" height="1" transform="translate(13 7)" fill="#212121"/>
<rect width="1" height="1" transform="translate(13 8)" fill="#212121"/>
<rect width="1" height="1" transform="translate(14 8)" fill="#212121"/>
<rect width="1" height="1" transform="translate(14 9)" fill="#212121"/>
<rect width="1" height="1" transform="translate(15 9)" fill="#212121"/>
<rect width="1" height="1" transform="translate(16 9)" fill="#212121"/>
<rect width="1" height="1" transform="translate(15 8)" fill="#212121"/>
<rect width="1" height="1" transform="translate(13 9)" fill="#212121"/>
<rect width="1" height="1" transform="translate(12 9)" fill="#212121"/>
<rect width="1" height="1" transform="translate(11 9)" fill="#212121"/>
<rect width="1" height="1" transform="translate(10 9)" fill="#212121"/>
<rect width="1" height="1" transform="translate(10 10)" fill="#212121"/>
<rect width="1" height="1" transform="translate(11 10)" fill="#212121"/>
<rect width="1" height="1" transform="translate(12 10)" fill="#212121"/>
<rect width="1" height="1" transform="matrix(-1 0 0 1 14 10)" fill="#212121"/>
<rect width="1" height="1" transform="matrix(-1 0 0 1 15 10)" fill="#212121"/>
<rect width="1" height="1" transform="matrix(-1 0 0 1 16 10)" fill="#212121"/>
<rect width="1" height="1" transform="matrix(-1 0 0 1 17 10)" fill="#212121"/>
<rect width="1" height="1" transform="matrix(-1 0 0 1 18 10)" fill="#212121"/>
<rect width="1" height="1" transform="matrix(-1 0 0 1 19 10)" fill="#212121"/>
<rect width="1" height="1" transform="matrix(-1 0 0 1 19 11)" fill="#212121"/>
<rect width="1" height="1" transform="matrix(-1 0 0 1 18 11)" fill="#212121"/>
<rect width="1" height="1" transform="matrix(-1 0 0 1 17 11)" fill="#212121"/>
<rect width="1" height="1" transform="matrix(-1 0 0 1 16 11)" fill="#212121"/>
<rect width="1" height="1" transform="matrix(-1 0 0 1 15 11)" fill="#212121"/>
<rect width="1" height="1" transform="matrix(-1 0 0 1 14 11)" fill="#212121"/>
<rect width="1" height="1" transform="matrix(-1 0 0 1 13 11)" fill="#212121"/>
<rect width="1" height="1" transform="matrix(-1 0 0 1 12 11)" fill="#212121"/>
<rect width="1" height="1" transform="matrix(-1 0 0 1 11 11)" fill="#212121"/>
<rect width="1" height="1" transform="matrix(-1 0 0 1 11 12)" fill="#212121"/>
<rect width="1" height="1" transform="matrix(-1 0 0 1 12 12)" fill="#212121"/>
<rect width="1" height="1" transform="matrix(-1 0 0 1 13 12)" fill="#212121"/>
<rect width="1" height="1" transform="matrix(-1 0 0 1 14 12)" fill="#212121"/>
<rect width="1" height="1" transform="matrix(-1 0 0 1 15 12)" fill="#212121"/>
<rect width="1" height="1" transform="matrix(-1 0 0 1 16 12)" fill="#212121"/>
<rect width="1" height="1" transform="matrix(-1 0 0 1 17 12)" fill="#212121"/>
<rect width="1" height="1" transform="matrix(-1 0 0 1 18 12)" fill="#212121"/>
<rect width="1" height="1" transform="matrix(-1 0 0 1 19 12)" fill="#212121"/>
<rect width="1" height="1" transform="matrix(-1 0 0 1 17 13)" fill="#212121"/>
<rect width="1" height="1" transform="matrix(-1 0 0 1 16 13)" fill="#212121"/>
<rect width="1" height="1" transform="matrix(-1 0 0 1 15 13)" fill="#212121"/>
<rect width="1" height="1" transform="matrix(-1 0 0 1 14 13)" fill="#212121"/>
<rect width="1" height="1" transform="matrix(-1 0 0 1 13 13)" fill="#212121"/>
<rect width="1" height="1" transform="matrix(-1 0 0 1 12 13)" fill="#212121"/>
<rect width="1" height="1" transform="matrix(-1 0 0 1 11 13)" fill="#212121"/>
<rect width="1" height="1" transform="matrix(-1 0 0 1 11 14)" fill="#212121"/>
<rect width="1" height="1" transform="matrix(-1 0 0 1 12 14)" fill="#212121"/>
<rect width="1" height="1" transform="matrix(-1 0 0 1 13 14)" fill="#212121"/>
<rect width="1" height="1" transform="matrix(-1 0 0 1 14 14)" fill="#212121"/>
<rect width="1" height="1" transform="matrix(-1 0 0 1 15 14)" fill="#212121"/>
<rect width="1" height="1" transform="matrix(-1 0 0 1 16 14)" fill="#212121"/>
<rect width="1" height="1" transform="matrix(-1 0 0 1 14 15)" fill="#212121"/>
<rect width="1" height="1" transform="matrix(-1 0 0 1 13 15)" fill="#212121"/>
<rect width="1" height="1" transform="matrix(-1 0 0 1 12 15)" fill="#212121"/>
<rect width="1" height="1" transform="matrix(-1 0 0 1 11 15)" fill="#212121"/>
<rect width="1" height="1" transform="matrix(-1 0 0 1 11 16)" fill="#212121"/>
<rect width="1" height="1" transform="matrix(-1 0 0 1 12 16)" fill="#212121"/>
<rect width="1" height="1" transform="matrix(-1 0 0 1 13 16)" fill="#212121"/>
<rect width="1" height="1" transform="matrix(-1 0 0 1 20 11)" fill="#212121"/>
</svg>
